<svg width="205" height="33" viewBox="0 0 205 33" fill="none" xmlns="http://www.w3.org/2000/svg">
<g clip-path="url(#clip0_1039_168)">
<path d="M202.596 0.524902H174.922C173.597 0.524902 172.525 1.57147 172.525 2.8654V30.6533C172.525 31.9472 173.597 33.0001 174.922 33.0001H202.596C203.922 33.0001 205 31.9472 205 30.6596V2.8654C205 1.57147 203.922 0.524902 202.596 0.524902ZM182.159 28.1986H177.339V12.6968H182.159V28.1986ZM179.749 10.5846C178.202 10.5846 176.952 9.33508 176.952 7.79378C176.952 6.25247 178.202 5.00293 179.749 5.00293C181.291 5.00293 182.54 6.25247 182.54 7.79378C182.54 9.32874 181.291 10.5846 179.749 10.5846ZM200.198 28.1986H195.384V20.6634C195.384 18.8683 195.353 16.5532 192.879 16.5532C190.373 16.5532 189.993 18.5131 189.993 20.5365V28.1986H185.185V12.6968H189.803V14.8153H189.866C190.507 13.5975 192.08 12.3099 194.42 12.3099C199.298 12.3099 200.198 15.5193 200.198 19.6929V28.1986Z" fill="black"/>
</g>
<g clip-path="url(#clip1_1039_168)">
<path d="M131.254 3.44894C135.593 3.44894 136.106 3.46797 137.813 3.54409C139.398 3.61386 140.255 3.88026 140.825 4.10225C141.58 4.39402 142.126 4.74922 142.69 5.31373C143.261 5.88459 143.61 6.42373 143.902 7.17852C144.124 7.74938 144.39 8.612 144.46 10.1914C144.536 11.9039 144.555 12.4177 144.555 16.7498C144.555 21.0883 144.536 21.6021 144.46 23.3083C144.39 24.894 144.124 25.7503 143.902 26.3212C143.61 27.076 143.255 27.6214 142.69 28.1859C142.119 28.7568 141.58 29.1057 140.825 29.3974C140.255 29.6194 139.392 29.8858 137.813 29.9556C136.1 30.0317 135.586 30.0507 131.254 30.0507C126.916 30.0507 126.402 30.0317 124.696 29.9556C123.11 29.8858 122.254 29.6194 121.683 29.3974C120.928 29.1057 120.383 28.7505 119.818 28.1859C119.247 27.6151 118.898 27.076 118.607 26.3212C118.385 25.7503 118.118 24.8877 118.048 23.3083C117.972 21.5958 117.953 21.082 117.953 16.7498C117.953 12.4114 117.972 11.8976 118.048 10.1914C118.118 8.60566 118.385 7.74938 118.607 7.17852C118.898 6.42373 119.254 5.87824 119.818 5.31373C120.389 4.74288 120.928 4.39402 121.683 4.10225C122.254 3.88026 123.116 3.61386 124.696 3.54409C126.402 3.46797 126.916 3.44894 131.254 3.44894ZM131.254 0.524902C126.846 0.524902 126.294 0.543931 124.562 0.620045C122.837 0.696159 121.651 0.975243 120.624 1.37484C119.552 1.79347 118.645 2.34529 117.744 3.25232C116.837 4.153 116.285 5.06002 115.866 6.12561C115.467 7.15949 115.188 8.33926 115.112 10.0645C115.036 11.8024 115.017 12.3543 115.017 16.7625C115.017 21.1708 115.036 21.7226 115.112 23.4542C115.188 25.1794 115.467 26.3656 115.866 27.3931C116.285 28.465 116.837 29.3721 117.744 30.2727C118.645 31.1734 119.552 31.7316 120.617 32.1439C121.651 32.5435 122.831 32.8225 124.556 32.8987C126.288 32.9748 126.84 32.9938 131.248 32.9938C135.656 32.9938 136.208 32.9748 137.939 32.8987C139.665 32.8225 140.851 32.5435 141.878 32.1439C142.944 31.7316 143.851 31.1734 144.752 30.2727C145.652 29.3721 146.211 28.465 146.623 27.3994C147.022 26.3656 147.301 25.1858 147.378 23.4605C147.454 21.729 147.473 21.1771 147.473 16.7689C147.473 12.3606 147.454 11.8088 147.378 10.0772C147.301 8.35194 147.022 7.16584 146.623 6.1383C146.223 5.06002 145.671 4.153 144.764 3.25232C143.864 2.35163 142.957 1.79347 141.891 1.38118C140.857 0.981585 139.677 0.702501 137.952 0.626387C136.214 0.543931 135.662 0.524902 131.254 0.524902Z" fill="black"/>
<path d="M131.254 8.42188C126.649 8.42188 122.913 12.1578 122.913 16.7627C122.913 21.3676 126.649 25.1035 131.254 25.1035C135.859 25.1035 139.595 21.3676 139.595 16.7627C139.595 12.1578 135.859 8.42188 131.254 8.42188ZM131.254 22.1731C128.267 22.1731 125.844 19.7502 125.844 16.7627C125.844 13.7752 128.267 11.3523 131.254 11.3523C134.242 11.3523 136.665 13.7752 136.665 16.7627C136.665 19.7502 134.242 22.1731 131.254 22.1731Z" fill="black"/>
<path d="M141.872 8.09178C141.872 9.17006 140.997 10.039 139.925 10.039C138.846 10.039 137.978 9.16372 137.978 8.09178C137.978 7.0135 138.853 6.14453 139.925 6.14453C140.997 6.14453 141.872 7.01984 141.872 8.09178Z" fill="black"/>
</g>
<g clip-path="url(#clip2_1039_168)">
<path d="M67.7246 29.9555C79.9764 29.9555 86.6795 19.8025 86.6795 11.0006C86.6795 10.7152 86.6732 10.4234 86.6605 10.138C87.9645 9.19496 89.0897 8.02692 89.9835 6.68873C88.7691 7.22904 87.4797 7.58191 86.1594 7.7353C87.5496 6.902 88.5905 5.59293 89.0892 4.05075C87.7813 4.82581 86.3511 5.37255 84.8598 5.66754C83.8549 4.59985 82.5264 3.89291 81.0794 3.65602C79.6325 3.41913 78.1479 3.66549 76.855 4.35701C75.5622 5.04852 74.5331 6.14667 73.927 7.48169C73.3209 8.8167 73.1714 10.3142 73.5017 11.7427C70.8535 11.6098 68.2629 10.9219 65.8977 9.72354C63.5324 8.5252 61.4455 6.84318 59.772 4.78652C58.9215 6.25295 58.6612 7.98821 59.0441 9.63964C59.427 11.2911 60.4243 12.7347 61.8334 13.6773C60.7756 13.6437 59.7409 13.3589 58.8149 12.8463V12.9288C58.8139 14.4677 59.3459 15.9595 60.3205 17.1505C61.295 18.3415 62.652 19.1582 64.1606 19.4619C63.1807 19.73 62.1522 19.7691 61.1547 19.5761C61.5805 20.8995 62.4087 22.0571 63.524 22.8872C64.6392 23.7172 65.9858 24.1784 67.3758 24.2063C65.016 26.06 62.101 27.0654 59.1003 27.0606C58.5681 27.0598 58.0365 27.0272 57.5083 26.9629C60.5567 28.9186 64.1028 29.9574 67.7246 29.9555Z" fill="black"/>
</g>
<g clip-path="url(#clip3_1039_168)">
<path d="M32.4752 16.7625C32.4752 7.79473 25.2054 0.524902 16.2376 0.524902C7.26983 0.524902 0 7.79473 0 16.7625C0 24.8671 5.93783 31.5847 13.7005 32.8029V21.4562H9.57766V16.7625H13.7005V13.1852C13.7005 9.11562 16.1247 6.86772 19.8337 6.86772C21.6097 6.86772 23.4684 7.18486 23.4684 7.18486V11.1808H21.421C19.404 11.1808 18.7748 12.4326 18.7748 13.718V16.7625H23.2782L22.5582 21.4562H18.7748V32.8029C26.5374 31.5847 32.4752 24.8671 32.4752 16.7625Z" fill="black"/>
</g>
<defs>
<clipPath id="clip0_1039_168">
<rect width="32.4752" height="32.4752" fill="white" transform="translate(172.525 0.524902)"/>
</clipPath>
<clipPath id="clip1_1039_168">
<rect width="32.4752" height="32.4752" fill="white" transform="translate(115.017 0.524902)"/>
</clipPath>
<clipPath id="clip2_1039_168">
<rect width="32.4752" height="32.4752" fill="white" transform="translate(57.5083 0.524902)"/>
</clipPath>
<clipPath id="clip3_1039_168">
<rect width="32.4752" height="32.4752" fill="white" transform="translate(0 0.524902)"/>
</clipPath>
</defs>
</svg>
