<svg width="279" height="67" viewBox="0 0 279 67" fill="none" xmlns="http://www.w3.org/2000/svg">
<path d="M90.984 51V17.4H97.416L111.72 41.112H108.312L122.376 17.4H128.76L128.856 51H121.56L121.512 28.584H122.856L111.624 47.448H108.12L96.648 28.584H98.28V51H90.984Z" fill="#1E1E1E"/>
<path d="M147.868 51.24C145.436 51.24 143.244 50.696 141.292 49.608C139.372 48.488 137.852 46.968 136.732 45.048C135.612 43.096 135.052 40.872 135.052 38.376C135.052 35.848 135.612 33.624 136.732 31.704C137.852 29.784 139.372 28.28 141.292 27.192C143.212 26.104 145.404 25.56 147.868 25.56C150.364 25.56 152.572 26.104 154.492 27.192C156.444 28.28 157.964 29.784 159.052 31.704C160.172 33.624 160.732 35.848 160.732 38.376C160.732 40.872 160.172 43.096 159.052 45.048C157.964 46.968 156.444 48.488 154.492 49.608C152.54 50.696 150.332 51.24 147.868 51.24ZM147.868 48.216C149.692 48.216 151.308 47.816 152.716 47.016C154.124 46.184 155.228 45.032 156.028 43.56C156.86 42.056 157.276 40.328 157.276 38.376C157.276 36.392 156.86 34.664 156.028 33.192C155.228 31.72 154.124 30.584 152.716 29.784C151.308 28.952 149.708 28.536 147.916 28.536C146.124 28.536 144.524 28.952 143.116 29.784C141.708 30.584 140.588 31.72 139.756 33.192C138.924 34.664 138.508 36.392 138.508 38.376C138.508 40.328 138.924 42.056 139.756 43.56C140.588 45.032 141.708 46.184 143.116 47.016C144.524 47.816 146.108 48.216 147.868 48.216ZM180.554 25.56C182.602 25.56 184.394 25.96 185.93 26.76C187.498 27.528 188.714 28.712 189.578 30.312C190.474 31.912 190.922 33.928 190.922 36.36V51H187.514V36.696C187.514 34.04 186.842 32.04 185.498 30.696C184.186 29.32 182.33 28.632 179.93 28.632C178.138 28.632 176.57 29 175.226 29.736C173.914 30.44 172.89 31.48 172.154 32.856C171.45 34.2 171.098 35.832 171.098 37.752V51H167.69V15.384H171.098V32.712L170.426 31.416C171.226 29.592 172.506 28.168 174.266 27.144C176.026 26.088 178.122 25.56 180.554 25.56ZM206.895 51.24C204.815 51.24 202.847 50.952 200.991 50.376C199.135 49.768 197.679 49.016 196.623 48.12L198.159 45.432C199.183 46.2 200.495 46.872 202.095 47.448C203.695 47.992 205.375 48.264 207.135 48.264C209.535 48.264 211.263 47.896 212.319 47.16C213.375 46.392 213.903 45.384 213.903 44.136C213.903 43.208 213.599 42.488 212.991 41.976C212.415 41.432 211.647 41.032 210.687 40.776C209.727 40.488 208.655 40.248 207.471 40.056C206.287 39.864 205.103 39.64 203.919 39.384C202.767 39.128 201.711 38.76 200.751 38.28C199.791 37.768 199.007 37.08 198.399 36.216C197.823 35.352 197.535 34.2 197.535 32.76C197.535 31.384 197.919 30.152 198.687 29.064C199.455 27.976 200.575 27.128 202.047 26.52C203.551 25.88 205.375 25.56 207.519 25.56C209.151 25.56 210.783 25.784 212.415 26.232C214.047 26.648 215.391 27.208 216.447 27.912L214.959 30.648C213.839 29.88 212.639 29.336 211.359 29.016C210.079 28.664 208.799 28.488 207.519 28.488C205.247 28.488 203.567 28.888 202.479 29.688C201.423 30.456 200.895 31.448 200.895 32.664C200.895 33.624 201.183 34.376 201.759 34.92C202.367 35.464 203.151 35.896 204.111 36.216C205.103 36.504 206.175 36.744 207.327 36.936C208.511 37.128 209.679 37.368 210.831 37.656C212.015 37.912 213.087 38.28 214.047 38.76C215.039 39.208 215.823 39.864 216.399 40.728C217.007 41.56 217.311 42.664 217.311 44.04C217.311 45.512 216.895 46.792 216.063 47.88C215.263 48.936 214.079 49.768 212.511 50.376C210.975 50.952 209.103 51.24 206.895 51.24ZM223.565 51V25.8H226.973V51H223.565ZM225.293 20.232C224.589 20.232 223.997 19.992 223.517 19.512C223.037 19.032 222.797 18.456 222.797 17.784C222.797 17.112 223.037 16.552 223.517 16.104C223.997 15.624 224.589 15.384 225.293 15.384C225.997 15.384 226.589 15.608 227.069 16.056C227.549 16.504 227.789 17.064 227.789 17.736C227.789 18.44 227.549 19.032 227.069 19.512C226.621 19.992 226.029 20.232 225.293 20.232ZM249.319 25.56C251.367 25.56 253.159 25.96 254.695 26.76C256.263 27.528 257.479 28.712 258.343 30.312C259.239 31.912 259.687 33.928 259.687 36.36V51H256.279V36.696C256.279 34.04 255.607 32.04 254.263 30.696C252.951 29.32 251.095 28.632 248.695 28.632C246.903 28.632 245.335 29 243.991 29.736C242.679 30.44 241.655 31.48 240.919 32.856C240.215 34.2 239.863 35.832 239.863 37.752V51H236.455V25.8H239.719V32.712L239.191 31.416C239.991 29.592 241.271 28.168 243.031 27.144C244.791 26.088 246.887 25.56 249.319 25.56Z" fill="#545454"/>
<path fill-rule="evenodd" clip-rule="evenodd" d="M33.5 67C52.0015 67 67 52.0015 67 33.5C67 31.2865 66.7853 29.1232 66.3756 27.0296C66.2738 27.2142 66.1722 27.399 66.0709 27.584C62.3989 34.28 58.7749 41 55.9669 48.128C55.4629 49.424 54.9589 50.72 54.6229 52.064C54.5509 52.352 54.5029 52.616 54.4789 52.904C54.4549 53.432 54.3109 53.552 53.7829 53.408C52.8229 53.144 52.0069 52.112 51.8869 50.984C51.7669 49.76 52.0069 48.584 52.3189 47.408C53.6869 42.128 55.8229 37.136 58.2229 32.264C58.9601 30.7343 59.7538 29.233 60.5499 27.7273C60.7905 27.2723 61.0313 26.8168 61.2709 26.36C61.3669 26.168 61.4629 25.976 61.4869 25.712C61.3429 25.856 61.1989 26 61.0789 26.144L61.0778 26.1452C56.7582 31.2808 52.4385 36.4164 48.1189 41.528C46.9189 42.944 45.6709 44.288 44.3269 45.56C43.4629 46.376 42.5749 47.192 41.2309 46.64C39.6949 46.04 38.5189 45.08 38.2549 43.328C37.9909 41.648 38.2789 39.992 38.7109 38.384C39.9349 33.896 41.9029 29.72 44.0389 25.616C45.5029 22.808 47.1109 20.072 49.1029 17.6C50.2549 16.184 50.9269 16.064 52.4869 17.024C52.5522 17.0697 52.6176 17.1137 52.6824 17.1573C52.8558 17.274 53.0257 17.3883 53.1829 17.528C54.0949 18.32 54.2149 18.824 53.6389 19.88C53.0591 20.9465 52.4708 22.0065 51.8829 23.0659C50.4995 25.5588 49.1181 28.0479 47.8549 30.608C46.0789 34.28 44.4229 38.024 43.1269 41.888C43.0638 42.0562 43.0191 42.2244 42.9445 42.5055C42.9339 42.5453 42.9228 42.5874 42.9109 42.632C43.9909 41.864 44.8789 41.096 45.7189 40.304C49.2134 36.9173 52.4171 33.298 55.6262 29.6726C55.9875 29.2644 56.349 28.8561 56.7109 28.448C58.5794 26.3396 60.3749 24.1713 62.1707 22.0028C62.7966 21.2469 63.4226 20.4911 64.0516 19.7377C58.8011 8.09998 47.0965 0 33.5 0C14.9985 0 0 14.9985 0 33.5C0 34.1419 0.018056 34.7797 0.053688 35.4127C2.46602 29.918 5.01924 24.4924 7.728 19.136C8.088 18.44 8.472 17.792 8.928 17.168C9.336 16.616 9.816 16.496 10.464 16.688C11.064 16.88 11.592 17.216 12.072 17.624C12.696 18.152 12.912 18.776 12.624 19.592C11.7184 22.4447 10.5138 25.1693 9.31233 27.8865C9.24019 28.0497 9.16805 28.2129 9.096 28.376C8.472 29.792 7.848 31.208 7.344 32.672C7.576 32.384 7.80534 32.0933 8.03467 31.8027C8.49334 31.2213 8.952 30.64 9.432 30.08C12.936 25.904 16.632 21.896 20.52 18.056C20.7672 17.8265 21.0273 17.623 21.2909 17.4168C21.3856 17.3426 21.4808 17.2682 21.576 17.192C22.632 16.352 23.712 16.376 24.84 17C26.712 18.008 27.24 19.16 26.832 21.224C26.5156 22.7608 25.9012 24.1912 25.2896 25.6154C25.2517 25.7036 25.2138 25.7918 25.176 25.88C24.2949 27.9066 23.3329 29.8726 22.3642 31.8521C22.2775 32.0293 22.1908 32.2066 22.104 32.384C22.0893 32.4098 22.0729 32.4361 22.0559 32.4633C21.9621 32.6137 21.851 32.7919 21.912 33.056C22.0244 32.9232 22.1324 32.7991 22.236 32.68C22.3759 32.5193 22.5079 32.3676 22.632 32.216C23.3179 31.4327 24.0012 30.6468 24.6845 29.8607C27.5397 26.5764 30.3963 23.2904 33.456 20.192C34.656 18.992 35.904 17.864 37.272 16.88C38.376 16.088 39.408 16.064 40.512 16.784C41.664 17.528 42.312 18.464 42.072 19.904C41.64 22.52 40.608 24.92 39.36 27.224C38.1201 29.5087 36.7994 31.753 35.4775 33.9992C34.5222 35.6225 33.5663 37.2468 32.64 38.888C30.288 43.04 27.96 47.192 26.04 51.56C25.4367 52.9027 24.9755 54.2928 24.5155 55.6791C24.4082 56.0025 24.301 56.3257 24.192 56.648C24 57.152 23.952 57.68 23.976 58.208C23.976 58.976 23.688 59.168 22.968 58.904C21.576 58.376 20.712 56.744 21.12 55.184C21.936 52.016 22.944 48.896 24.216 45.872C27.048 39.104 30.408 32.624 34.104 26.288C34.872 24.944 35.592 23.576 36.168 22.136C34.752 23.312 33.456 24.608 32.208 25.928C28.1643 30.3025 24.3177 34.846 20.4741 39.3859C19.299 40.7739 18.1241 42.1616 16.944 43.544C16.6971 43.849 16.5293 44.1979 16.3609 44.5482C16.2509 44.7768 16.1407 45.006 16.008 45.224C15.816 45.56 15.612 45.896 15.408 46.232C15.204 46.568 15 46.904 14.808 47.24C14.52 47.768 14.112 47.864 13.584 47.648C12.072 47 11.832 46.304 12.024 45.128C12.384 43.208 13.152 41.432 13.92 39.68C15.3862 36.32 16.9884 33.028 18.5907 29.7361C19.5062 27.855 20.4218 25.9738 21.312 24.08C21.672 23.336 21.984 22.544 22.248 21.704C22.1483 21.7954 22.0485 21.884 21.9498 21.9716C21.7634 22.1371 21.5806 22.2994 21.408 22.472C16.224 27.44 11.616 32.912 7.464 38.768C5.80169 41.0952 4.06888 43.352 2.21909 45.515C7.04885 58.0813 19.2329 67 33.5 67Z" fill="#FD6F00"/>
</svg>
